# xmcd
#
# Track frame offsets: 
#        150
#        16687
#        35602
#        52430
#        64301
#        75726
#        95461
#        111615
#        130185
#        154672
#        176925
#        187193
#        206290
#        218825
#        236872
#
# Disc length: 3423 seconds
#
# Revision: 0
# Processed by: cddbd v1.5.2PL0 Copyright (c) Steve Scherf et al.
# Submitted via: ExactAudioCopy v1.3
#
DISCID=e10d5d0f
DTITLE=Big Jay McNeely - Party Time
DYEAR=2009
DGENRE=Blues
TTITLE0=I Can't Stop Loving You
TTITLE1=Dixieland Boogie
TTITLE2=Big Fat Mama
TTITLE3=I Want To Be With You
TTITLE4=Pretty Girls Everywhere
TTITLE5=Jay Meets Rinus
TTITLE6=Toom Toom
TTITLE7=Insect Ball
TTITLE8=Get On Up And Boogie
TTITLE9=Party Time
TTITLE10=Big Ali
TTITLE11=Critical Times
TTITLE12=You Are My Life
TTITLE13=I Love You So Much
TTITLE14=Boogie 'Till The Break Of Dawn
EXTD=
EXTT0=
EXTT1=
EXTT2=
EXTT3=
EXTT4=
EXTT5=
EXTT6=
EXTT7=
EXTT8=
EXTT9=
EXTT10=
EXTT11=
EXTT12=
EXTT13=
EXTT14=
PLAYORDER=
